<?xml version="1.0" encoding="UTF-8" standalone="no"?>
<!-- Created with Inkscape (http://www.inkscape.org/) -->

<svg
   width="210mm"
   height="297mm"
   viewBox="0 0 210 297"
   version="1.1"
   id="svg5"
   sodipodi:docname="logo-cand2.svg"
   inkscape:version="1.1.1 (3bf5ae0d25, 2021-09-20)"
   xmlns:inkscape="http://www.inkscape.org/namespaces/inkscape"
   xmlns:sodipodi="http://sodipodi.sourceforge.net/DTD/sodipodi-0.dtd"
   xmlns="http://www.w3.org/2000/svg"
   xmlns:svg="http://www.w3.org/2000/svg">
  <sodipodi:namedview
     id="namedview7"
     pagecolor="#ffffff"
     bordercolor="#666666"
     borderopacity="1.0"
     inkscape:pageshadow="2"
     inkscape:pageopacity="0.0"
     inkscape:pagecheckerboard="0"
     inkscape:document-units="mm"
     showgrid="false"
     showguides="true"
     inkscape:guide-bbox="true"
     inkscape:zoom="0.74118967"
     inkscape:cx="284.00288"
     inkscape:cy="343.3669"
     inkscape:window-width="1920"
     inkscape:window-height="1017"
     inkscape:window-x="1912"
     inkscape:window-y="-8"
     inkscape:window-maximized="1"
     inkscape:current-layer="layer1">
    <sodipodi:guide
       position="56.043803,240.59989"
       orientation="1,0"
       id="guide1167" />
    <sodipodi:guide
       position="131.00908,240.59989"
       orientation="1,0"
       id="guide1169" />
    <sodipodi:guide
       position="48.726563,237.38582"
       orientation="0,-1"
       id="guide1171" />
    <sodipodi:guide
       position="93.526443,93.883414"
       orientation="0,-1"
       id="guide1173" />
    <sodipodi:guide
       position="93.526443,237.92127"
       orientation="1,0"
       id="guide1175" />
    <sodipodi:guide
       position="35.340143,166.17008"
       orientation="0,-1"
       id="guide1177" />
  </sodipodi:namedview>
  <defs
     id="defs2">
    <clipPath
       clipPathUnits="userSpaceOnUse"
       id="clipPath838">
      <path
         d="M 0,188.832 H 241.57 V 0 H 0 Z"
         id="path836" />
    </clipPath>
    <clipPath
       clipPathUnits="userSpaceOnUse"
       id="clipPath846">
      <path
         d="M 91.1331,160.209 H 130.886 V 120.456 H 91.1331 Z"
         id="path844" />
    </clipPath>
    <clipPath
       clipPathUnits="userSpaceOnUse"
       id="clipPath862">
      <path
         d="M 51.0352,146.781 H 100.009 V 77.392 H 51.0352 Z"
         id="path860" />
    </clipPath>
    <clipPath
       clipPathUnits="userSpaceOnUse"
       id="clipPath878">
      <path
         d="M 71.5635,61.5611 H 153.279 V 28.4283 H 71.5635 Z"
         id="path876" />
    </clipPath>
    <clipPath
       clipPathUnits="userSpaceOnUse"
       id="clipPath894">
      <path
         d="m 121.545,145.259 h 51.97 V 77.0216 h -51.97 z"
         id="path892" />
    </clipPath>
    <clipPath
       clipPathUnits="userSpaceOnUse"
       id="clipPath922">
      <path
         d="M 47.5774,82.8189 H 87.3302 V 43.066 H 47.5774 Z"
         id="path920" />
    </clipPath>
    <clipPath
       clipPathUnits="userSpaceOnUse"
       id="clipPath938">
      <path
         d="m 136.465,83.3949 h 39.753 V 43.642 h -39.753 z"
         id="path936" />
    </clipPath>
  </defs>
  <g
     inkscape:label="Layer 1"
     inkscape:groupmode="layer"
     id="layer1">
    <g
       id="g834"
       clip-path="url(#clipPath838)"
       transform="matrix(0.78318554,0,0,-0.78318554,6.1621946,205.84881)">
      <g
         id="g840">
        <g
           id="g842" />
        <g
           id="g854">
          <g
             clip-path="url(#clipPath846)"
             opacity="0.800003"
             id="g852">
            <g
               transform="translate(120.9515,157.5399)"
               id="g850">
              <path
                 d="m 0,0 c 9.504,-5.49 12.757,-17.646 7.266,-27.149 -5.492,-9.503 -17.647,-12.756 -27.15,-7.266 -9.504,5.491 -12.757,17.646 -7.265,27.149 C -21.658,2.238 -9.503,5.491 0,0"
                 style="fill:#d56562;fill-opacity:1;fill-rule:nonzero;stroke:none"
                 id="path848" />
            </g>
          </g>
        </g>
      </g>
      <g
         id="g856">
        <g
           id="g858" />
        <g
           id="g870">
          <g
             clip-path="url(#clipPath862)"
             opacity="0.449997"
             id="g868">
            <g
               transform="translate(59.7025,81.3758)"
               id="g866">
              <path
                 d="M 0,0 C -0.941,9.783 -0.282,22.173 6.634,34.144 13.706,46.383 23.477,52.796 32.122,56.521 31.349,59.389 31.233,62.426 31.8,65.405 21.432,61.431 8.455,54.001 -0.603,38.325 -9.4,23.097 -9.407,7.28 -7.943,-3.983 -5.606,-2.056 -2.888,-0.704 0,0 m 11.155,31.531 c 6.297,10.899 15.112,16.731 22.996,20.161 1.485,-2.549 3.558,-4.789 6.156,-6.515 C 32.772,42.412 24.335,37.638 18.392,27.351 12.626,17.371 12.713,6.64 13.88,-1.695 11.113,-0.25 8.154,0.503 5.211,0.576 4.364,9.589 4.98,20.844 11.155,31.531"
                 style="fill:#425fa8;fill-opacity:1;fill-rule:nonzero;stroke:none"
                 id="path864" />
            </g>
          </g>
        </g>
      </g>
      <g
         id="g872">
        <g
           id="g874" />
        <g
           id="g886">
          <g
             clip-path="url(#clipPath878)"
             opacity="0.449997"
             id="g884">
            <g
               transform="translate(146.3997,46.3114)"
               id="g882">
              <path
                 d="M 0,0 C -0.733,0.423 -1.416,0.898 -2.073,1.397 -10.275,-4.252 -21.7,-9.889 -35.903,-9.507 -49.94,-9.129 -60.2,-3.67 -67.587,2.111 c -2.059,-2.176 -4.542,-3.824 -7.249,-4.868 8.437,-7.087 20.999,-14.628 38.709,-15.105 19.126,-0.515 33.903,8.449 43.007,15.449 C 4.521,-2.046 2.189,-1.266 0,0 m -9.42,12.827 c 0.625,-2.762 1.818,-5.39 3.563,-7.677 -7.506,-5.005 -17.646,-9.767 -29.907,-9.437 -12.623,0.339 -21.971,5.339 -28.751,10.653 1.523,2.828 2.311,5.864 2.387,8.884 6.063,-5.45 14.402,-10.855 26.591,-11.183 10.657,-0.287 19.491,4.137 26.117,8.76"
                 style="fill:#399836;fill-opacity:1;fill-rule:nonzero;stroke:none"
                 id="path880" />
            </g>
          </g>
        </g>
      </g>
      <g
         id="g888">
        <g
           id="g890" />
        <g
           id="g902">
          <g
             clip-path="url(#clipPath894)"
             opacity="0.449997"
             id="g900">
            <g
               transform="translate(172.9241,77.0213)"
               id="g898">
              <path
                 d="m 0,0 c -1.452,1.557 -10.764,4.973 -11.366,5.223 -3.963,0.413 -7.182,0.926 -10.155,-0.193 0.66,7.651 -0.16,16.703 -6.248,25.971 -6.243,9.506 -15.702,14.249 -23.61,16.967 2.498,1.668 7.128,5.88 7.521,9.006 0.335,-0.12 1.486,8.422 0.938,11.263 10.585,-3.84 24.134,-10.954 33.486,-25.192 C 1.098,27.014 1.384,11.201 0,0 m -12.114,6.15 c 1.749,-0.21 3.488,-0.641 5.178,-1.34 -0.011,-0.171 -0.02,-0.346 -0.033,-0.515 -1.664,0.844 -3.392,1.434 -5.148,1.778 0.002,0.026 0.002,0.052 0.003,0.077"
                 style="fill:#d56562;fill-opacity:1;fill-rule:nonzero;stroke:none"
                 id="path896" />
            </g>
          </g>
        </g>
      </g>
      <g
         id="g904"
         transform="translate(94.1273,132.4403)">
        <path
           d="M 0,0 0.707,0.307 0.319,0.973 c -0.87,1.494 -1.528,3.063 -1.961,4.664 L -1.848,6.4 -2.575,6.087 c -11.392,-4.91 -19.833,-12.323 -25.809,-22.664 -5.716,-9.893 -7.977,-21.517 -6.723,-34.554 l 0.076,-0.789 0.769,0.19 c 1.678,0.409 3.364,0.602 5.032,0.556 l 0.771,-0.018 -0.072,0.768 c -1.094,11.653 0.876,21.93 5.855,30.549 C -17.478,-10.878 -10.06,-4.377 0,0"
           style="fill:#1d1d1b;fill-opacity:1;fill-rule:nonzero;stroke:none"
           id="path906" />
      </g>
      <g
         id="g908"
         transform="translate(141.0862,51.8788)">
        <path
           d="M 0,0 -0.389,0.512 -0.925,0.154 C -10.6,-6.3 -20.519,-9.433 -30.432,-9.169 c -10.413,0.28 -19.684,3.717 -28.345,10.508 l -0.639,0.501 -0.519,-0.973 c -0.043,-0.088 -0.086,-0.175 -0.135,-0.262 -0.727,-1.257 -1.636,-2.464 -2.701,-3.589 l -0.519,-0.546 0.593,-0.465 c 9.705,-7.596 20.202,-11.444 32.089,-11.766 0.454,-0.011 0.905,-0.016 1.357,-0.016 11.179,0 22.234,3.711 32.88,11.043 l 0.782,0.538 -0.757,0.573 C 2.254,-2.562 1.024,-1.343 0,0"
           style="fill:#1d1d1b;fill-opacity:1;fill-rule:nonzero;stroke:none"
           id="path910" />
      </g>
      <g
         id="g912"
         transform="translate(157.3821,115.1288)">
        <path
           d="m 0,0 c -6.2,9.52 -15.472,16.77 -27.559,21.547 l -0.645,0.256 -0.247,-0.65 c -0.404,-1.064 -0.832,-1.982 -1.307,-2.806 -0.33,-0.57 -0.698,-1.135 -1.095,-1.681 l -0.52,-0.721 0.829,-0.321 c 11.097,-4.301 19.516,-10.769 25.022,-19.222 5.539,-8.506 7.99,-17.819 7.492,-28.47 l -0.029,-0.594 0.586,-0.111 c 1.718,-0.326 3.394,-0.894 4.98,-1.685 l 0.917,-0.458 0.073,1.021 C 9.406,-21.262 6.627,-10.174 0,0"
           style="fill:#1d1d1b;fill-opacity:1;fill-rule:nonzero;stroke:none"
           id="path914" />
      </g>
      <g
         id="g916">
        <g
           id="g918" />
        <g
           id="g930">
          <g
             clip-path="url(#clipPath922)"
             opacity="0.800003"
             id="g928">
            <g
               transform="translate(77.3958,80.1502)"
               id="g926">
              <path
                 d="m 0,0 c 9.503,-5.491 12.756,-17.646 7.266,-27.149 -5.492,-9.504 -17.647,-12.757 -27.15,-7.266 -9.504,5.49 -12.757,17.645 -7.265,27.149 C -21.659,2.237 -9.504,5.49 0,0"
                 style="fill:#425fa8;fill-opacity:1;fill-rule:nonzero;stroke:none"
                 id="path924" />
            </g>
          </g>
        </g>
      </g>
      <g
         id="g932">
        <g
           id="g934" />
        <g
           id="g946">
          <g
             clip-path="url(#clipPath938)"
             opacity="0.800003"
             id="g944">
            <g
               transform="translate(166.2835,80.7264)"
               id="g942">
              <path
                 d="m 0,0 c 9.503,-5.491 12.756,-17.646 7.266,-27.15 -5.492,-9.503 -17.647,-12.756 -27.15,-7.265 -9.504,5.49 -12.757,17.645 -7.265,27.149 C -21.659,2.237 -9.504,5.49 0,0"
                 style="fill:#399836;fill-opacity:1;fill-rule:nonzero;stroke:none"
                 id="path940" />
            </g>
          </g>
        </g>
      </g>
      <g
         id="g948"
         transform="translate(120.9515,157.5399)">
        <path
           d="m 0,0 c 9.504,-5.49 12.757,-17.646 7.266,-27.149 -5.492,-9.503 -17.647,-12.756 -27.15,-7.266 -9.504,5.491 -12.757,17.646 -7.265,27.149 C -21.658,2.238 -9.503,5.491 0,0 Z"
           style="fill:none;stroke:#bc2423;stroke-width:5.21;stroke-linecap:butt;stroke-linejoin:miter;stroke-miterlimit:10;stroke-dasharray:none;stroke-opacity:1"
           id="path950" />
      </g>
      <g
         id="g952"
         transform="translate(77.3958,80.1502)">
        <path
           d="m 0,0 c 9.503,-5.491 12.756,-17.646 7.266,-27.149 -5.492,-9.504 -17.647,-12.757 -27.15,-7.266 -9.504,5.49 -12.757,17.645 -7.265,27.149 C -21.659,2.237 -9.504,5.49 0,0 Z"
           style="fill:none;stroke:#425fa8;stroke-width:5.21;stroke-linecap:butt;stroke-linejoin:miter;stroke-miterlimit:4;stroke-dasharray:none;stroke-opacity:1"
           id="path954" />
      </g>
      <g
         id="g956"
         transform="translate(166.2835,80.7264)">
        <path
           d="m 0,0 c 9.503,-5.491 12.756,-17.646 7.266,-27.15 -5.492,-9.503 -17.647,-12.756 -27.15,-7.265 -9.504,5.49 -12.757,17.645 -7.265,27.149 C -21.659,2.237 -9.504,5.49 0,0 Z"
           style="fill:none;stroke:#399836;stroke-width:5.21;stroke-linecap:butt;stroke-linejoin:miter;stroke-miterlimit:4;stroke-dasharray:none;stroke-opacity:1"
           id="path958" />
      </g>
    </g>
    <g
       id="surface213"
       transform="matrix(0.35277778,0,0,0.35277778,5.3319974,43.17094)">
      <path
         style="fill:none;stroke:#9558b2;stroke-width:18;stroke-linecap:butt;stroke-linejoin:miter;stroke-miterlimit:10;stroke-opacity:1"
         d="M 143.75,462.5 H 37.5 v -425 h 106.25"
         id="path1141" />
      <path
         style="fill:none;stroke:#9558b2;stroke-width:18;stroke-linecap:butt;stroke-linejoin:miter;stroke-miterlimit:10;stroke-opacity:1"
         d="M 356.25,462.5 H 462.5 V 37.5 H 356.25"
         id="path1143" />
    </g>
  </g>
</svg>
